<?xml version="1.0" standalone="no"?>
<!DOCTYPE svg PUBLIC "-//W3C//DTD SVG 20010904//EN"
 "http://www.w3.org/TR/2001/REC-SVG-20010904/DTD/svg10.dtd">
<svg version="1.0" xmlns="http://www.w3.org/2000/svg"
 width="512.000000pt" height="512.000000pt" viewBox="0 0 512.000000 512.000000"
 preserveAspectRatio="xMidYMid meet">

<g transform="translate(0.000000,512.000000) scale(0.100000,-0.100000)"
fill="#000000" stroke="none">
<path d="M236 4355 c-33 -13 -68 -32 -78 -42 -17 -18 23 -57 1188 -1143 663
-619 1211 -1125 1218 -1125 13 0 2376 2273 2376 2286 0 4 -25 17 -55 28 l-56
21 -2267 0 -2267 0 -59 -25z"/>
<path d="M4340 3283 c-426 -411 -775 -750 -775 -754 0 -10 1545 -1452 1551
-1447 2 3 3 667 2 1476 l-3 1472 -775 -747z"/>
<path d="M1 2509 c1 -800 4 -1465 8 -1477 5 -21 84 51 776 717 424 408 771
745 773 750 2 5 -318 307 -710 672 -392 365 -743 692 -780 728 l-68 64 1
-1454z"/>
<path d="M2989 1979 c-178 -171 -338 -318 -356 -325 -41 -18 -95 -18 -136 0
-18 8 -177 150 -355 316 l-323 301 -33 -28 c-19 -15 -372 -354 -785 -753 -516
-498 -747 -728 -740 -735 7 -7 739 -10 2302 -10 2271 0 2292 0 2334 20 l43 20
-804 750 c-442 412 -808 751 -814 753 -5 1 -155 -137 -333 -309z"/>
</g>
</svg>
