<?xml version="1.0" standalone="no"?>
<!DOCTYPE svg PUBLIC "-//W3C//DTD SVG 20010904//EN"
 "http://www.w3.org/TR/2001/REC-SVG-20010904/DTD/svg10.dtd">
<svg version="1.0" xmlns="http://www.w3.org/2000/svg"
 width="900.000000pt" height="512.000000pt" viewBox="0 0 900.000000 512.000000"
 preserveAspectRatio="xMidYMid meet">

<g transform="translate(0.000000,512.000000) scale(0.100000,-0.100000)"
fill="#000000" stroke="none">
<path d="M4350 5110 c-592 -59 -1105 -463 -1293 -1020 -64 -188 -87 -352 -87
-627 l0 -142 -74 -34 c-296 -137 -500 -409 -552 -734 -13 -84 -14 -216 -12
-913 4 -798 4 -817 26 -897 96 -364 374 -635 737 -719 76 -18 151 -19 1410
-19 l1330 0 88 23 c365 92 639 372 723 737 18 75 19 138 19 925 0 780 -1 851
-18 922 -99 421 -429 713 -857 758 -57 6 -569 10 -1292 10 l-1198 0 0 114 c0
355 70 586 251 825 175 233 460 405 751 453 113 18 328 16 428 -5 249 -53 443
-158 621 -336 110 -111 194 -232 251 -364 24 -55 53 -105 73 -124 82 -78 207
-58 254 41 28 57 26 92 -9 181 -44 110 -72 163 -146 273 -234 345 -594 581
-999 656 -103 19 -316 27 -425 16z m1510 -2083 c226 -69 388 -229 457 -453 17
-55 18 -112 18 -889 l0 -830 -27 -81 c-67 -195 -217 -345 -412 -412 l-81 -27
-1315 0 -1315 0 -81 27 c-197 67 -349 221 -416 423 l-23 70 -3 802 c-3 899 -4
884 67 1028 22 44 57 100 78 125 103 125 254 210 412 230 31 4 625 7 1321 6
1154 -2 1270 -3 1320 -19z"/>
<path d="M4465 2434 c-238 -37 -424 -248 -425 -485 0 -67 33 -182 71 -245 42
-70 129 -151 197 -184 l51 -25 3 -297 c3 -281 4 -298 24 -324 46 -62 114 -89
181 -72 46 11 75 34 102 79 20 32 21 49 22 324 l0 290 61 30 c33 16 84 53 113
83 262 261 151 700 -204 808 -52 15 -151 24 -196 18z m153 -360 c116 -89 58
-274 -87 -274 -63 0 -110 28 -138 80 -28 53 -29 89 -4 139 24 45 39 59 88 77
48 17 99 9 141 -22z"/>
</g>
</svg>
